<?xml version="1.0" standalone="no"?>
<!DOCTYPE svg PUBLIC "-//W3C//DTD SVG 20010904//EN"
 "http://www.w3.org/TR/2001/REC-SVG-20010904/DTD/svg10.dtd">
<svg version="1.0" xmlns="http://www.w3.org/2000/svg"
 width="700.000000pt" height="700.000000pt" viewBox="0 0 700.000000 700.000000"
 preserveAspectRatio="xMidYMid meet">
<metadata>
Created by potrace 1.14, written by Peter Selinger 2001-2017
</metadata>
<g transform="translate(0.000000,700.000000) scale(0.100000,-0.100000)"
fill="#000000" stroke="none">
<path d="M3437 6409 c-61 -14 -112 -45 -155 -94 -67 -76 -74 -111 -70 -352 3
-189 5 -212 25 -253 96 -201 378 -224 502 -40 46 69 53 113 49 335 -3 181 -5
204 -25 245 -57 118 -202 188 -326 159z"/>
<path d="M1568 5636 c-175 -46 -265 -246 -185 -408 32 -65 269 -303 337 -339
37 -20 60 -24 130 -24 98 0 148 21 208 84 61 64 77 106 77 201 0 74 -3 91 -28
135 -40 73 -281 309 -343 337 -58 25 -132 30 -196 14z"/>
<path d="M5293 5640 c-69 -15 -113 -48 -244 -179 -167 -166 -184 -195 -184
-311 0 -64 5 -94 19 -120 34 -63 74 -106 128 -136 47 -26 63 -29 138 -29 116
0 151 21 318 189 154 156 175 192 176 301 1 188 -168 325 -351 285z"/>
<path d="M3348 5245 c-2 -1 -30 -6 -63 -9 -304 -34 -641 -178 -887 -377 -84
-69 -222 -209 -281 -287 -62 -81 -157 -230 -157 -244 0 -6 -6 -19 -14 -27 -42
-50 -143 -340 -166 -481 -7 -41 -15 -84 -17 -95 -3 -11 -6 -96 -8 -190 -6
-318 53 -570 201 -855 83 -160 173 -277 356 -466 271 -280 308 -359 313 -679
3 -165 5 -189 26 -285 17 -80 71 -202 125 -281 299 -438 910 -513 1304 -162
112 99 189 212 240 351 40 109 51 187 55 377 4 183 19 272 65 368 44 93 85
145 251 314 122 125 231 253 274 325 155 255 235 473 272 738 10 73 10 370 -1
440 -22 155 -58 296 -106 415 -231 580 -719 978 -1340 1091 -81 15 -430 30
-442 19z m312 -590 c74 -8 201 -43 293 -80 161 -66 358 -215 454 -342 15 -21
33 -43 39 -50 27 -28 109 -180 139 -257 53 -136 77 -258 79 -411 4 -199 -42
-386 -136 -565 -69 -129 -106 -175 -297 -369 -68 -69 -145 -153 -172 -186
l-47 -60 -515 -1 -515 0 -33 48 c-18 27 -94 111 -168 187 -204 207 -241 253
-306 376 -191 360 -187 777 11 1132 45 80 146 207 218 275 67 64 204 157 289
197 60 29 183 75 212 80 6 1 26 6 45 11 92 25 269 31 410 15z m133 -3027 c-2
-68 -5 -152 -7 -188 -8 -159 -129 -271 -291 -271 -101 0 -199 60 -250 152 -30
56 -32 68 -38 312 l-3 117 296 0 297 0 -4 -122z"/>
<path d="M773 3774 c-62 -22 -136 -94 -163 -156 -50 -115 -21 -249 72 -333 75
-67 113 -76 340 -75 212 0 246 6 318 57 21 16 52 49 69 74 96 147 41 343 -118
421 -43 22 -60 23 -261 25 -171 2 -224 -1 -257 -13z"/>
<path d="M5742 3775 c-112 -35 -191 -139 -197 -260 -5 -100 38 -192 116 -248
71 -51 106 -58 321 -57 175 0 202 2 250 21 198 77 245 341 87 483 -76 68 -110
76 -338 75 -134 0 -210 -5 -239 -14z"/>
</g>
</svg>
